<svg
   width="641"
   height="95"
   viewBox="0 0 641 95"
   fill="none"
   version="1.1"
   xmlns="http://www.w3.org/2000/svg">
  <g
     id="text574"
     style="fill:currentColor;stroke:currentColor"
     transform="matrix(2.4472873,0,0,2.4472873,81.250814,10.093259)">
    <path
       d="m 28.66895,29.443503 c 4.800921,0 9.21467,-2.710197 9.21467,-7.743419 0,-5.149374 -3.910427,-6.388322 -8.517762,-8.208025 -3.445822,-1.316382 -5.923716,-2.284309 -5.884999,-4.9170716 0.03872,-2.6327627 2.323026,-4.0265783 4.917072,-4.0265783 2.052006,0 4.413749,0.9679275 6.620623,2.7876311 l 2.052007,-2.6714798 c -2.594046,-2.0907233 -5.61398,-3.2135191 -8.67263,-3.2135191 -4.723486,0 -8.401611,3.174802 -8.401611,7.2788144 0,4.8396373 4.14273,6.5819063 8.208025,8.0918733 3.678124,1.393816 6.156019,2.206875 6.156019,5.265526 0,2.671479 -2.284309,4.220163 -5.652697,4.220163 -2.671479,0 -5.613979,-1.238947 -7.588551,-3.716841 l -2.168157,2.594045 c 2.748914,2.9425 6.27217,4.258881 9.717991,4.258881 z"
       fill="currentColor"
       id="path600" />
    <path
       d="m 55.809633,29.443503 c 7.704702,0 13.705853,-5.613979 13.705853,-13.976872 0,-8.4016105 -6.001151,-14.0155897 -13.705853,-14.0155897 -8.01444,0 -13.822004,5.8462818 -13.822004,14.0155897 0,8.169308 5.807564,13.976872 13.822004,13.976872 z m 0,-3.174802 c -5.962433,0 -10.298748,-4.607334 -10.298748,-10.80207 0,-6.233453 4.336315,-10.8407877 10.298748,-10.8407877 5.691413,0 10.182597,4.4524663 10.182597,10.8407877 0,6.349604 -4.491184,10.80207 -10.182597,10.80207 z"
       fill="currentColor"
       id="path602" />
    <path
       d="m 75.129421,1.722061 v 27.48914 h 3.368388 V 7.5683428 h 0.07743 L 93.945931,29.211201 h 3.445822 V 1.722061 h -3.368388 v 21.87516 h -0.03872 L 78.459092,1.722061 Z"
       fill="currentColor"
       id="path604" />
    <path
       d="m 104.39953,1.722061 v 27.48914 h 3.36839 V 1.722061 Z"
       fill="currentColor"
       id="path606" />
    <path
       d="m 127.28128,29.404786 c 4.83964,0 8.32418,-2.206874 10.72464,-5.188091 l -2.51661,-2.12944 c -1.93586,2.439177 -4.64605,4.142729 -8.20803,4.142729 -5.80756,0 -10.18259,-4.104012 -10.18259,-10.685919 0,-6.310887 3.91042,-10.8795046 10.14388,-10.8795046 3.09737,0 5.92371,1.3163814 8.20802,4.1427295 l 2.51661,-2.0907233 c -2.90378,-3.561973 -6.77549,-5.2655253 -10.72463,-5.2655253 -8.78878,0 -13.66714,6.310887 -13.66714,14.0930237 0,8.982367 6.27217,13.860721 13.70585,13.860721 z"
       fill="currentColor"
       id="path608" />
    <path
       d="m 161.27483,29.443503 c 4.80092,0 9.21467,-2.710197 9.21467,-7.743419 0,-5.149374 -3.91043,-6.388322 -8.51776,-8.208025 -3.44582,-1.316382 -5.92372,-2.284309 -5.885,-4.9170716 0.0387,-2.6327627 2.32303,-4.0265783 4.91707,-4.0265783 2.05201,0 4.41375,0.9679275 6.62063,2.7876311 l 2.052,-2.6714798 c -2.59404,-2.0907233 -5.61398,-3.2135191 -8.67263,-3.2135191 -4.72348,0 -8.40161,3.174802 -8.40161,7.2788144 0,4.8396373 4.14273,6.5819063 8.20803,8.0918733 3.67812,1.393816 6.15601,2.206875 6.15601,5.265526 0,2.671479 -2.2843,4.220163 -5.65269,4.220163 -2.67148,0 -5.61398,-1.238947 -7.58855,-3.716841 l -2.16816,2.594045 c 2.74891,2.9425 6.27217,4.258881 9.71799,4.258881 z"
       fill="currentColor"
       id="path610" />
    <path
       d="m 183.26614,29.443503 c 3.05865,0 5.38168,-1.393815 6.73678,-3.639407 h 0.0387 v 3.407105 h 3.01993 V 10.355974 h -3.13609 v 3.32967 l -0.0774,0.03872 c -1.3551,-2.284308 -3.79428,-3.60069 -6.58191,-3.60069 -5.34296,0 -9.17595,4.220164 -9.17595,9.795426 0,5.730131 3.98786,9.524406 9.17595,9.524406 z m 0.46461,-2.865065 c -3.87171,0 -6.46576,-2.865065 -6.46576,-6.659341 0,-4.181446 2.90379,-6.93036 6.46576,-6.93036 3.71684,0 6.31089,3.05865 6.31089,6.93036 0,3.987861 -2.82635,6.659341 -6.31089,6.659341 z"
       fill="currentColor"
       id="path612" />
    <path
       d="m 199.48854,13.066171 v 16.14503 h 3.13608 v -16.14503 h 5.34296 v -2.710197 h -5.34296 V 6.8327179 c 0,-2.4778943 1.00665,-3.4845388 2.55533,-3.4845388 1.04536,0 2.09072,0.387171 3.29095,1.0066445 l 0.69691,-2.6714797 c -1.04536,-0.6581907 -2.47789,-1.23894718 -4.37503,-1.23894718 -3.36839,0 -5.30424,2.05200618 -5.30424,6.07858438 v 3.8329929 h -2.28431 v 2.710197 z"
       fill="currentColor"
       id="path614" />
    <path
       d="m 227.86809,19.454492 c 0,-5.381677 -3.52326,-9.330821 -8.67263,-9.330821 -5.38168,0 -9.29211,3.987861 -9.29211,9.679275 0,5.768847 3.94915,9.640557 9.52441,9.640557 3.79427,0 6.15602,-1.432532 7.78214,-3.523256 l -2.20688,-1.85842 c -1.16151,1.432532 -2.9425,2.516611 -5.45911,2.516611 -3.56197,0 -6.03987,-2.323026 -6.46576,-5.846282 h 14.7125 c 0,-0.232302 0.0774,-0.774342 0.0774,-1.277664 z m -8.71135,-6.465755 c 3.09737,0 5.11066,2.090723 5.57526,5.188091 h -11.57641 c 0.58076,-3.213519 2.98122,-5.188091 6.00115,-5.188091 z"
       fill="currentColor"
       id="path616" />
  </g>
  <path
     d="m 62.335169,58.712065 0.01137,-0.0075 c 0,0 -0.01137,0.0075 -0.01857,0.01086 0.0032,0 0.0083,0 0.01137,0 z"
     fill="currentColor"
     id="path7"
     style="stroke-width:1.63629" />
  <path
     d="M 62.327964,58.715829 C 45.031581,63.911097 30.727987,71.489473 21.767603,80.364951 l -0.395359,0.395491 c 2.383296,2.253847 4.995655,4.271411 7.818608,5.985926 l 0.60608,-0.742717 c 2.446115,-2.989362 5.0696,-5.875149 7.80011,-8.594684 7.327354,-7.301357 15.70769,-13.619941 24.730922,-18.693138 z"
     fill="currentColor"
     id="path8"
     style="stroke-width:1.63629" />
  <path
     d="M 64.326868,51.01522 H 7.2275585 c 0.6909716,9.263445 4.1310465,17.758315 9.5294735,24.668102 l 0.247585,-0.247586 C 22.550854,69.963446 29.770922,64.989899 38.480157,60.655659 46.114,56.853381 54.87871,53.59075 64.326878,51.01521 Z"
     fill="currentColor"
     id="path9"
     style="stroke-width:1.63629" />
  <path
     d="M 42.437542,12.941747 C 57.916007,28.364846 77.396201,38.563111 98.764684,42.431827 96.189146,19.56693 76.727435,1.7827616 53.079246,1.7827616 c -6.24462,0 -12.197176,1.2452221 -17.632646,3.4918086 2.205898,2.6567185 4.563327,5.2432388 6.990942,7.6708768 z"
     fill="currentColor"
     id="path10"
     style="stroke-width:1.63629" />
  <path
     d="M 21.767504,14.829829 C 30.727987,23.720033 45.038768,31.287447 62.33893,36.49384 53.308325,31.409352 44.920637,25.094693 37.58967,17.789561 34.866366,15.077402 32.246644,12.191585 29.7894,9.194923 L 29.183479,8.4522222 c -2.823115,1.7144848 -5.43547,3.7282858 -7.807653,5.9822448 l 0.395387,0.395362 z"
     fill="currentColor"
     id="path11"
     style="stroke-width:1.63629" />
  <path
     d="m 42.437542,82.253244 c -2.438579,2.427616 -4.792413,5.014127 -6.990942,7.670993 5.427954,2.246481 11.388026,3.491709 17.632646,3.491709 23.648189,0 43.1099,-17.787933 45.692811,-40.660025 -21.364725,3.868713 -40.844936,14.066978 -56.326981,29.489958 z"
     fill="currentColor"
     id="path12"
     style="stroke-width:1.63629" />
  <path
     d="m 38.469014,34.528312 v 0.0075 C 29.767323,30.201436 22.550845,25.224126 17.004608,19.759198 L 16.757023,19.511614 C 11.35859,26.4214 7.9185147,34.916274 7.2275431,44.179717 H 64.315723 C 54.871311,41.604171 46.113975,38.341547 38.468998,34.528305 Z"
     fill="currentColor"
     id="path13"
     style="stroke-width:1.63629" />
</svg>
