<svg width="391.89278" height="29.960936" viewBox="0 0 392 30" fill="none" xmlns="http://www.w3.org/2000/svg">
 <metadata id="metadata19"/>

 <g>
  <text fill="none" font-family="Gilroy" font-size="40px" font-weight="normal" font-style="normal" id="text59" y="22.73907" x="171.53215" xml:space="preserve"/>
  <path fill="currentColor" id="text63" d="m252.51562,16.01758l0,13.73828l1.4375,0l0,-1.64258l0.0371,0c0.672,1.08267 1.79378,1.75586 3.28711,1.75586c2.50134,0 4.42383,-1.82913 4.42383,-4.5918c0,-2.688 -1.84783,-4.72265 -4.42383,-4.72265c-1.38133,0 -2.5398,0.6146 -3.23046,1.69726l-0.0176,0l0,-6.23437l-1.51365,0zm48.31055,0l0,6.27344l-0.0176,0c-0.69066,-1.10134 -1.86671,-1.73633 -3.24804,-1.73633c-2.55734,0 -4.44336,2.03465 -4.44336,4.72265c0,2.76267 1.94094,4.5918 4.46093,4.5918c1.47467,0 2.63183,-0.69163 3.28516,-1.79297l0.0195,0l0,1.67969l1.45508,0l0,-13.73828l-1.51167,0zm42.52539,0.35547c-3.99466,0 -6.57031,2.83672 -6.57031,6.77539c0,4.10666 2.81895,6.70117 6.62695,6.70117c2.03467,0 3.92035,-0.63435 5.15235,-1.67969l0,-5.24609l-5.46875,0l0,1.47656l3.84375,0l0,2.85547c-0.98934,0.74667 -2.20201,1.10156 -3.52735,1.10156c-2.968,0 -4.92773,-2.20365 -4.92773,-5.20898c0,-3.17334 2.07218,-5.22656 4.85351,-5.22656c1.54934,0 2.85593,0.50458 3.91993,1.53125l1.13867,-1.00782c-1.4,-1.456 -3.23035,-2.07226 -5.04102,-2.07226zm38.84961,0.46679c-0.616,0 -1.10156,0.4847 -1.10156,1.08204c0,0.59733 0.48556,1.08203 1.10156,1.08203c0.616,0 1.10156,-0.4847 1.10156,-1.08203c0,-0.59734 -0.48556,-1.08204 -1.10156,-1.08204zm-114.41015,3.71485c-2.576,0 -4.42383,2.03465 -4.42383,4.72265c0,2.76267 1.92249,4.5918 4.42383,4.5918c1.47466,0 2.59471,-0.67319 3.24804,-1.75586l0.0195,0l0,1.64258l1.45508,0l0,-9.08984l-1.51172,0l0,1.60546l-0.0371,0.01953c-0.65333,-1.10133 -1.82982,-1.73632 -3.17382,-1.73632l0.00002,0zm10.01562,0c-1.71733,0 -2.98633,1.04531 -2.98633,2.44531c0,1.66133 1.24995,2.25858 2.72461,2.78125c1.32534,0.48533 2.16602,0.70905 2.16602,1.51172c0,0.69066 -0.635,1.23242 -1.73633,1.23242c-1.26933,0 -2.07192,-0.4109 -2.78125,-1.10156l-0.76563,1.15625c0.87734,0.76533 2.03488,1.28906 3.54688,1.28906c2.184,0 3.26562,-1.17704 3.26562,-2.5957c0.0187,-1.77334 -1.2492,-2.10881 -3.17187,-2.85547c-0.98933,-0.35467 -1.71875,-0.70864 -1.71875,-1.41797c0,-0.69067 0.69106,-1.10156 1.40039,-1.10156c0.784,0 1.6242,0.2427 2.4082,0.9707l0.78321,-1.19531c-1.008,-0.82133 -2.03344,-1.11914 -3.13477,-1.11914zm9.49219,0c-2.59467,0 -4.48047,1.92201 -4.48047,4.66601c0,2.78134 1.9038,4.64844 4.5918,4.64844c1.82933,0 2.96795,-0.69122 3.75195,-1.69922l-1.06445,-0.89648c-0.56,0.69066 -1.41753,1.21484 -2.63086,1.21484c-1.71734,0 -2.91186,-1.12164 -3.11719,-2.82031l7.0918,0c0,-0.112 0.0371,-0.37257 0.0371,-0.61524c0,-2.59466 -1.69703,-4.49804 -4.17969,-4.49804l0.00001,0zm27.05664,0c-2.81867,0 -4.70313,2.05268 -4.70313,4.66601c0,2.61334 1.88446,4.64844 4.70313,4.64844c2.688,0 4.68555,-1.88577 4.68555,-4.64844c0,-2.76266 -1.99755,-4.66601 -4.68555,-4.66601zm11.79297,0c-1.4,0 -2.59536,0.65257 -3.30469,1.7539l-0.0176,0l0,-1.64257l-1.51367,0l0,9.08984l1.51367,0l0,-4.53516c0,-2.05333 1.11861,-3.28515 2.83594,-3.28515c1.32533,0 2.24023,0.72747 2.24023,2.85547l0,4.96484l1.51172,0l0,-5.39453c0,-2.59467 -1.30562,-3.80664 -3.26562,-3.80664l0.00002,0zm30.0039,0c-1.4,0 -2.5934,0.65257 -3.30273,1.7539l-0.0195,0l0,-1.64257l-1.51172,0l0,9.08984l1.51172,0l0,-4.53516c0,-2.05333 1.12056,-3.28515 2.83789,-3.28515c1.32533,0 2.24023,0.72747 2.24023,2.85547l0,4.96484l1.51172,0l0,-5.39453c0,-2.59467 -1.30758,-3.80664 -3.26758,-3.80664l-0.00003,0zm10.04688,0c-2.81867,0 -4.70313,2.05268 -4.70313,4.66601c0,2.61334 1.88446,4.64844 4.70313,4.64844c2.688,0 4.68555,-1.88577 4.68555,-4.64844c0,-2.76266 -1.99755,-4.66601 -4.68555,-4.66601zm9.5332,0c-1.71733,0 -2.98633,1.04531 -2.98633,2.44531c0,1.66133 1.2519,2.25858 2.72657,2.78125c1.32533,0.48533 2.16406,0.70905 2.16406,1.51172c0,0.69066 -0.635,1.23242 -1.73633,1.23242c-1.26933,0 -2.07192,-0.4109 -2.78125,-1.10156l-0.76562,1.15625c0.87733,0.76533 2.03487,1.28906 3.54687,1.28906c2.184,0 3.26758,-1.17704 3.26758,-2.5957c0.0187,-1.77334 -1.25116,-2.10881 -3.17383,-2.85547c-0.98933,-0.35467 -1.7168,-0.70864 -1.7168,-1.41797c0,-0.69067 0.69106,-1.10156 1.40039,-1.10156c0.784,0 1.62421,0.2427 2.40821,0.9707l0.7832,-1.19531c-1.008,-0.82133 -2.03538,-1.11914 -3.13672,-1.11914zm12.72461,0c-1.71733,0 -2.98633,1.04531 -2.98633,2.44531c0,1.66133 1.24995,2.25858 2.72461,2.78125c1.32534,0.48533 2.16602,0.70905 2.16602,1.51172c0,0.69066 -0.635,1.23242 -1.73633,1.23242c-1.26933,0 -2.07192,-0.4109 -2.78125,-1.10156l-0.76563,1.15625c0.87734,0.76533 2.03488,1.28906 3.54688,1.28906c2.184,0 3.26758,-1.17704 3.26758,-2.5957c0.0187,-1.77334 -1.25116,-2.10881 -3.17383,-2.85547c-0.98933,-0.35467 -1.7168,-0.70864 -1.7168,-1.41797c0,-0.69067 0.68911,-1.10156 1.39844,-1.10156c0.784,0 1.6242,0.2427 2.4082,0.9707l0.78516,-1.19531c-1.008,-0.82133 -2.03539,-1.11914 -3.13672,-1.11914zm-7.02148,0.11133l0,9.08984l1.51172,0l0,-9.08984l-1.51172,0zm-124.38282,1.26953c1.71734,0 3.11719,1.32579 3.11719,3.34179c0,1.82934 -1.27027,3.21094 -3.09961,3.21094c-1.736,0 -3.11719,-1.28827 -3.11719,-3.21094c0,-1.86666 1.25161,-3.34179 3.09961,-3.34179zm10.96289,0c1.792,0 3.04297,1.47513 3.04297,3.34179c0,1.92267 -1.36297,3.21094 -3.04297,3.21094c-1.86666,0 -3.11718,-1.3816 -3.11718,-3.21094c0,-2.016 1.39985,-3.34179 3.11718,-3.34179zm19.26368,0c1.49333,0 2.4635,1.00862 2.6875,2.50195l-5.58008,0c0.28,-1.54933 1.43658,-2.50195 2.89258,-2.50195zm10.52343,0c1.82934,0 3.08008,1.47513 3.08008,3.34179c0,1.92267 -1.38227,3.21094 -3.09961,3.21094c-1.848,0 -3.11718,-1.3816 -3.11718,-3.21094c0,-2.016 1.40071,-3.34179 3.13671,-3.34179zm16.55274,0c1.75467,0 3.13672,1.34382 3.13672,3.28515c0,1.94134 -1.40072,3.26758 -3.13672,3.26758c-1.88533,0 -3.1543,-1.45691 -3.1543,-3.26758c0,-1.81066 1.2503,-3.28515 3.1543,-3.28515zm51.84375,0c1.75467,0 3.13672,1.34382 3.13672,3.28515c0,1.94134 -1.40072,3.26758 -3.13672,3.26758c-1.88533,0 -3.1543,-1.45691 -3.1543,-3.26758c0,-1.81066 1.2503,-3.28515 3.1543,-3.28515z"/>
  <path fill="currentColor" id="text29" d="m205.56641,0c-3.48,0 -5.48047,2.1193 -5.48047,6.2793l0,3.96093l-2.35938,0l0,2.79883l2.35938,0l0,16.68164l3.24023,0l0,-16.68164l5.51953,0l0,-2.79883l-5.51953,0l0,-3.64062c0,-2.56 1.03867,-3.59961 2.63867,-3.59961c1.08,0 2.16039,0.39906 3.40039,1.03906l0.72071,-2.75976c-1.08,-0.68 -2.55953,-1.2793 -4.51953,-1.2793zm-45.22461,1.03906c-4.88,0 -8.67969,3.28149 -8.67969,7.52149c0,5 4.28047,6.79937 8.48047,8.35937c3.8,1.44 6.35937,2.27945 6.35937,5.43946c0,2.75999 -2.35984,4.36132 -5.83984,4.36132c-2.76,0 -5.79984,-1.27984 -7.83984,-3.83984l-2.24024,2.67969c2.84,3.04 6.47906,4.40039 10.03906,4.40039c4.96,0 9.52149,-2.8 9.52149,-8c0,-5.32 -4.04078,-6.60047 -8.80078,-8.48047c-3.56,-1.36 -6.12008,-2.36008 -6.08008,-5.08008c0.04,-2.72 2.40008,-4.16016 5.08008,-4.16016c2.12,0 4.55984,0.99891 6.83984,2.87891l2.12109,-2.75976c-2.68,-2.16001 -5.80093,-3.32032 -8.96093,-3.32032zm-160.3418,0.28125l0,28.40039l3.48047,0l0,-12.08007l12.40039,0l0,-3.16016l-12.40039,0l0,-10l14.63867,0l0,-3.16016l-18.11914,0zm72.10547,1.91992l-3.23828,0.35938l0,6.64062l-2.52149,0l0,2.79883l2.52149,0l0,10.88086c0,3.92 1.59906,6.04102 5.03906,6.04102c2.32,0 3.6407,-0.56117 4.7207,-1.20117l-0.83984,-2.83985c-0.96,0.52 -2.16031,1 -3.32031,1c-1.84,0 -2.36133,-1.12047 -2.36133,-3.48047l0,-10.40039l6.44141,0l0,-2.79883l-6.44141,0l0,-7zm-42.66602,6.75977c-5.52,0 -9.48047,4.35914 -9.48047,10.11914c0,5.92 4.12047,9.8418 9.48047,9.8418c3.16,0 5.55899,-1.44172 6.95899,-3.76172l0.04102,0l0,3.52148l3.11914,0l0,-19.48047l-3.24024,0l0,3.43946l-0.08008,0.04101c-1.4,-2.36 -3.91883,-3.7207 -6.79883,-3.7207zm26.30078,0c-3,0 -5.56007,1.39977 -7.08007,3.75977l-0.04102,0l0,-3.51954l-3.24024,0l0,19.48047l3.24024,0l0,-9.7207c0,-4.4 2.40007,-7.03906 6.08007,-7.03906c2.84,0 4.80078,1.55914 4.80078,6.11914l0,10.64062l3.24024,0l0,-11.56054c0,-5.56 -2.8,-8.16016 -7,-8.16016zm35.04102,0c-6.04,0 -10.08008,4.4 -10.08008,10c0,5.6 4.04008,9.96094 10.08008,9.96094c5.76,0 10.04102,-4.04094 10.04102,-9.96094c0,-5.92 -4.28102,-10 -10.04102,-10zm24.71094,0c-2.6,0 -5.03953,1.39977 -6.51953,3.75977l-0.041,0l0,-3.51954l-3.24023,0l0,19.48047l3.24023,0l0,-9.68164c0,-4.36 2.39961,-7.07812 5.59961,-7.07812c2.92,0 4.52148,2.27945 4.52148,6.43945l0,10.32031l3.23829,0l0,-9.68164c0,-4.36 2.44046,-7.07812 5.48046,-7.07812c2.96,0 4.43946,2.27945 4.43946,6.43945l0,10.32031l3.24023,0l0,-11.20117c0,-5.56 -2.39875,-8.51953 -6.71875,-8.51953c-4.32,0 -5.68015,1.52016 -7.16015,4.16016l-0.041,0c-1.00004,-2.68 -3.1191,-4.16016 -6.0391,-4.16016zm67.85351,0c-5.52,0 -9.48047,4.35914 -9.48047,10.11914c0,5.92 4.12047,9.8418 9.48047,9.8418c3.16,0 5.55899,-1.44172 6.95899,-3.76172l0.041,0l0,3.52148l3.11914,0l0,-19.48047l-3.24023,0l0,3.43946l-0.0801,0.04101c-1.39997,-2.36 -3.9188,-3.7207 -6.7988,-3.7207zm37.11328,0c-5.56,0 -9.60156,4.12 -9.60156,10c0,5.96 4.07985,9.96094 9.83985,9.96094c3.92,0 6.36101,-1.48063 8.04101,-3.64063l-2.2793,-1.91992c-1.2,1.48 -3.04062,2.59961 -5.64062,2.59961c-3.68,0 -6.23969,-2.39906 -6.67969,-6.03906l15.19922,0c0,-0.24 0.0801,-0.80032 0.0801,-1.32031c0,-5.56001 -3.63899,-9.64063 -8.95899,-9.64063l-0.00002,0zm-190.54101,2.96094c3.84,0 6.52148,3.1582 6.52148,7.1582c0,4.12 -2.92148,6.88086 -6.52148,6.88086c-4,0 -6.67969,-2.96086 -6.67969,-6.88086c0,-4.32 2.99969,-7.1582 6.67969,-7.1582zm60.86328,0c3.76,0 6.7207,2.87906 6.7207,7.03906c0,4.16 -3.0007,7 -6.7207,7c-4.04,0 -6.75977,-3.12 -6.75977,-7c0,-3.88 2.67977,-7.03906 6.75977,-7.03906zm93.04297,0c3.84,0 6.52148,3.1582 6.52148,7.1582c0,4.12 -2.92148,6.88086 -6.52148,6.88086c-4,0 -6.67969,-2.96086 -6.67969,-6.88086c0,-4.32 2.99969,-7.1582 6.67969,-7.1582zm36.59375,0c3.2,0 5.27976,2.15937 5.75976,5.35937l-11.95898,0c0.6,-3.32 3.07922,-5.35937 6.19922,-5.35937z"/>
 </g>
</svg>
