<svg
   width="391.89278"
   height="29.960936"
   viewBox="0 0 392 30"
   fill="none"
   xmlns="http://www.w3.org/2000/svg">
  <metadata
     id="metadata19" />
  <g
     id="g242">
    <path
       fill="currentColor"
       id="text63"
       d="m252.51562,16.01758l0,13.73828l1.4375,0l0,-1.64258l0.0371,0c0.672,1.08267 1.79378,1.75586 3.28711,1.75586c2.50134,0 4.42383,-1.82913 4.42383,-4.5918c0,-2.688 -1.84783,-4.72265 -4.42383,-4.72265c-1.38133,0 -2.5398,0.6146 -3.23046,1.69726l-0.0176,0l0,-6.23437l-1.51365,0zm48.31055,0l0,6.27344l-0.0176,0c-0.69066,-1.10134 -1.86671,-1.73633 -3.24804,-1.73633c-2.55734,0 -4.44336,2.03465 -4.44336,4.72265c0,2.76267 1.94094,4.5918 4.46093,4.5918c1.47467,0 2.63183,-0.69163 3.28516,-1.79297l0.0195,0l0,1.67969l1.45508,0l0,-13.73828l-1.51167,0zm42.52539,0.35547c-3.99466,0 -6.57031,2.83672 -6.57031,6.77539c0,4.10666 2.81895,6.70117 6.62695,6.70117c2.03467,0 3.92035,-0.63435 5.15235,-1.67969l0,-5.24609l-5.46875,0l0,1.47656l3.84375,0l0,2.85547c-0.98934,0.74667 -2.20201,1.10156 -3.52735,1.10156c-2.968,0 -4.92773,-2.20365 -4.92773,-5.20898c0,-3.17334 2.07218,-5.22656 4.85351,-5.22656c1.54934,0 2.85593,0.50458 3.91993,1.53125l1.13867,-1.00782c-1.4,-1.456 -3.23035,-2.07226 -5.04102,-2.07226zm38.84961,0.46679c-0.616,0 -1.10156,0.4847 -1.10156,1.08204c0,0.59733 0.48556,1.08203 1.10156,1.08203c0.616,0 1.10156,-0.4847 1.10156,-1.08203c0,-0.59734 -0.48556,-1.08204 -1.10156,-1.08204zm-114.41015,3.71485c-2.576,0 -4.42383,2.03465 -4.42383,4.72265c0,2.76267 1.92249,4.5918 4.42383,4.5918c1.47466,0 2.59471,-0.67319 3.24804,-1.75586l0.0195,0l0,1.64258l1.45508,0l0,-9.08984l-1.51172,0l0,1.60546l-0.0371,0.01953c-0.65333,-1.10133 -1.82982,-1.73632 -3.17382,-1.73632l0.00002,0zm10.01562,0c-1.71733,0 -2.98633,1.04531 -2.98633,2.44531c0,1.66133 1.24995,2.25858 2.72461,2.78125c1.32534,0.48533 2.16602,0.70905 2.16602,1.51172c0,0.69066 -0.635,1.23242 -1.73633,1.23242c-1.26933,0 -2.07192,-0.4109 -2.78125,-1.10156l-0.76563,1.15625c0.87734,0.76533 2.03488,1.28906 3.54688,1.28906c2.184,0 3.26562,-1.17704 3.26562,-2.5957c0.0187,-1.77334 -1.2492,-2.10881 -3.17187,-2.85547c-0.98933,-0.35467 -1.71875,-0.70864 -1.71875,-1.41797c0,-0.69067 0.69106,-1.10156 1.40039,-1.10156c0.784,0 1.6242,0.2427 2.4082,0.9707l0.78321,-1.19531c-1.008,-0.82133 -2.03344,-1.11914 -3.13477,-1.11914zm9.49219,0c-2.59467,0 -4.48047,1.92201 -4.48047,4.66601c0,2.78134 1.9038,4.64844 4.5918,4.64844c1.82933,0 2.96795,-0.69122 3.75195,-1.69922l-1.06445,-0.89648c-0.56,0.69066 -1.41753,1.21484 -2.63086,1.21484c-1.71734,0 -2.91186,-1.12164 -3.11719,-2.82031l7.0918,0c0,-0.112 0.0371,-0.37257 0.0371,-0.61524c0,-2.59466 -1.69703,-4.49804 -4.17969,-4.49804l0.00001,0zm27.05664,0c-2.81867,0 -4.70313,2.05268 -4.70313,4.66601c0,2.61334 1.88446,4.64844 4.70313,4.64844c2.688,0 4.68555,-1.88577 4.68555,-4.64844c0,-2.76266 -1.99755,-4.66601 -4.68555,-4.66601zm11.79297,0c-1.4,0 -2.59536,0.65257 -3.30469,1.7539l-0.0176,0l0,-1.64257l-1.51367,0l0,9.08984l1.51367,0l0,-4.53516c0,-2.05333 1.11861,-3.28515 2.83594,-3.28515c1.32533,0 2.24023,0.72747 2.24023,2.85547l0,4.96484l1.51172,0l0,-5.39453c0,-2.59467 -1.30562,-3.80664 -3.26562,-3.80664l0.00002,0zm30.0039,0c-1.4,0 -2.5934,0.65257 -3.30273,1.7539l-0.0195,0l0,-1.64257l-1.51172,0l0,9.08984l1.51172,0l0,-4.53516c0,-2.05333 1.12056,-3.28515 2.83789,-3.28515c1.32533,0 2.24023,0.72747 2.24023,2.85547l0,4.96484l1.51172,0l0,-5.39453c0,-2.59467 -1.30758,-3.80664 -3.26758,-3.80664l-0.00003,0zm10.04688,0c-2.81867,0 -4.70313,2.05268 -4.70313,4.66601c0,2.61334 1.88446,4.64844 4.70313,4.64844c2.688,0 4.68555,-1.88577 4.68555,-4.64844c0,-2.76266 -1.99755,-4.66601 -4.68555,-4.66601zm9.5332,0c-1.71733,0 -2.98633,1.04531 -2.98633,2.44531c0,1.66133 1.2519,2.25858 2.72657,2.78125c1.32533,0.48533 2.16406,0.70905 2.16406,1.51172c0,0.69066 -0.635,1.23242 -1.73633,1.23242c-1.26933,0 -2.07192,-0.4109 -2.78125,-1.10156l-0.76562,1.15625c0.87733,0.76533 2.03487,1.28906 3.54687,1.28906c2.184,0 3.26758,-1.17704 3.26758,-2.5957c0.0187,-1.77334 -1.25116,-2.10881 -3.17383,-2.85547c-0.98933,-0.35467 -1.7168,-0.70864 -1.7168,-1.41797c0,-0.69067 0.69106,-1.10156 1.40039,-1.10156c0.784,0 1.62421,0.2427 2.40821,0.9707l0.7832,-1.19531c-1.008,-0.82133 -2.03538,-1.11914 -3.13672,-1.11914zm12.72461,0c-1.71733,0 -2.98633,1.04531 -2.98633,2.44531c0,1.66133 1.24995,2.25858 2.72461,2.78125c1.32534,0.48533 2.16602,0.70905 2.16602,1.51172c0,0.69066 -0.635,1.23242 -1.73633,1.23242c-1.26933,0 -2.07192,-0.4109 -2.78125,-1.10156l-0.76563,1.15625c0.87734,0.76533 2.03488,1.28906 3.54688,1.28906c2.184,0 3.26758,-1.17704 3.26758,-2.5957c0.0187,-1.77334 -1.25116,-2.10881 -3.17383,-2.85547c-0.98933,-0.35467 -1.7168,-0.70864 -1.7168,-1.41797c0,-0.69067 0.68911,-1.10156 1.39844,-1.10156c0.784,0 1.6242,0.2427 2.4082,0.9707l0.78516,-1.19531c-1.008,-0.82133 -2.03539,-1.11914 -3.13672,-1.11914zm-7.02148,0.11133l0,9.08984l1.51172,0l0,-9.08984l-1.51172,0zm-124.38282,1.26953c1.71734,0 3.11719,1.32579 3.11719,3.34179c0,1.82934 -1.27027,3.21094 -3.09961,3.21094c-1.736,0 -3.11719,-1.28827 -3.11719,-3.21094c0,-1.86666 1.25161,-3.34179 3.09961,-3.34179zm10.96289,0c1.792,0 3.04297,1.47513 3.04297,3.34179c0,1.92267 -1.36297,3.21094 -3.04297,3.21094c-1.86666,0 -3.11718,-1.3816 -3.11718,-3.21094c0,-2.016 1.39985,-3.34179 3.11718,-3.34179zm19.26368,0c1.49333,0 2.4635,1.00862 2.6875,2.50195l-5.58008,0c0.28,-1.54933 1.43658,-2.50195 2.89258,-2.50195zm10.52343,0c1.82934,0 3.08008,1.47513 3.08008,3.34179c0,1.92267 -1.38227,3.21094 -3.09961,3.21094c-1.848,0 -3.11718,-1.3816 -3.11718,-3.21094c0,-2.016 1.40071,-3.34179 3.13671,-3.34179zm16.55274,0c1.75467,0 3.13672,1.34382 3.13672,3.28515c0,1.94134 -1.40072,3.26758 -3.13672,3.26758c-1.88533,0 -3.1543,-1.45691 -3.1543,-3.26758c0,-1.81066 1.2503,-3.28515 3.1543,-3.28515zm51.84375,0c1.75467,0 3.13672,1.34382 3.13672,3.28515c0,1.94134 -1.40072,3.26758 -3.13672,3.26758c-1.88533,0 -3.1543,-1.45691 -3.1543,-3.26758c0,-1.81066 1.2503,-3.28515 3.1543,-3.28515z" />
  </g>
  <g
     id="text574"
     style="fill:currentColor;stroke:currentColor;stroke-width:1.0013">
    <path
       d="m 28.66895,29.443503 c 4.800921,0 9.21467,-2.710197 9.21467,-7.743419 0,-5.149374 -3.910427,-6.388322 -8.517762,-8.208025 -3.445822,-1.316382 -5.923716,-2.284309 -5.884999,-4.9170716 0.03872,-2.6327627 2.323026,-4.0265783 4.917072,-4.0265783 2.052006,0 4.413749,0.9679275 6.620623,2.7876311 l 2.052007,-2.6714798 c -2.594046,-2.0907233 -5.61398,-3.2135191 -8.67263,-3.2135191 -4.723486,0 -8.401611,3.174802 -8.401611,7.2788144 0,4.8396373 4.14273,6.5819063 8.208025,8.0918733 3.678124,1.393816 6.156019,2.206875 6.156019,5.265526 0,2.671479 -2.284309,4.220163 -5.652697,4.220163 -2.671479,0 -5.613979,-1.238947 -7.588551,-3.716841 l -2.168157,2.594045 c 2.748914,2.9425 6.27217,4.258881 9.717991,4.258881 z"
       id="path600" />
    <path
       d="m 55.809633,29.443503 c 7.704702,0 13.705853,-5.613979 13.705853,-13.976872 0,-8.4016105 -6.001151,-14.0155897 -13.705853,-14.0155897 -8.01444,0 -13.822004,5.8462818 -13.822004,14.0155897 0,8.169308 5.807564,13.976872 13.822004,13.976872 z m 0,-3.174802 c -5.962433,0 -10.298748,-4.607334 -10.298748,-10.80207 0,-6.233453 4.336315,-10.8407877 10.298748,-10.8407877 5.691413,0 10.182597,4.4524663 10.182597,10.8407877 0,6.349604 -4.491184,10.80207 -10.182597,10.80207 z"
       id="path602" />
    <path
       d="m 75.129421,1.722061 v 27.48914 h 3.368388 V 7.5683428 h 0.07743 L 93.945931,29.211201 h 3.445822 V 1.722061 h -3.368388 v 21.87516 h -0.03872 L 78.459092,1.722061 Z"
       id="path604" />
    <path
       d="m 104.39953,1.722061 v 27.48914 h 3.36839 V 1.722061 Z"
       id="path606" />
    <path
       d="m 127.28128,29.404786 c 4.83964,0 8.32418,-2.206874 10.72464,-5.188091 l -2.51661,-2.12944 c -1.93586,2.439177 -4.64605,4.142729 -8.20803,4.142729 -5.80756,0 -10.18259,-4.104012 -10.18259,-10.685919 0,-6.310887 3.91042,-10.8795046 10.14388,-10.8795046 3.09737,0 5.92371,1.3163814 8.20802,4.1427295 l 2.51661,-2.0907233 c -2.90378,-3.561973 -6.77549,-5.2655253 -10.72463,-5.2655253 -8.78878,0 -13.66714,6.310887 -13.66714,14.0930237 0,8.982367 6.27217,13.860721 13.70585,13.860721 z"
       id="path608" />
    <path
       d="m 161.27483,29.443503 c 4.80092,0 9.21467,-2.710197 9.21467,-7.743419 0,-5.149374 -3.91043,-6.388322 -8.51776,-8.208025 -3.44582,-1.316382 -5.92372,-2.284309 -5.885,-4.9170716 0.0387,-2.6327627 2.32303,-4.0265783 4.91707,-4.0265783 2.05201,0 4.41375,0.9679275 6.62063,2.7876311 l 2.052,-2.6714798 c -2.59404,-2.0907233 -5.61398,-3.2135191 -8.67263,-3.2135191 -4.72348,0 -8.40161,3.174802 -8.40161,7.2788144 0,4.8396373 4.14273,6.5819063 8.20803,8.0918733 3.67812,1.393816 6.15601,2.206875 6.15601,5.265526 0,2.671479 -2.2843,4.220163 -5.65269,4.220163 -2.67148,0 -5.61398,-1.238947 -7.58855,-3.716841 l -2.16816,2.594045 c 2.74891,2.9425 6.27217,4.258881 9.71799,4.258881 z"
       id="path610" />
    <path
       d="m 183.26614,29.443503 c 3.05865,0 5.38168,-1.393815 6.73678,-3.639407 h 0.0387 v 3.407105 h 3.01993 V 10.355974 h -3.13609 v 3.32967 l -0.0774,0.03872 c -1.3551,-2.284308 -3.79428,-3.60069 -6.58191,-3.60069 -5.34296,0 -9.17595,4.220164 -9.17595,9.795426 0,5.730131 3.98786,9.524406 9.17595,9.524406 z m 0.46461,-2.865065 c -3.87171,0 -6.46576,-2.865065 -6.46576,-6.659341 0,-4.181446 2.90379,-6.93036 6.46576,-6.93036 3.71684,0 6.31089,3.05865 6.31089,6.93036 0,3.987861 -2.82635,6.659341 -6.31089,6.659341 z"
       id="path612" />
    <path
       d="m 199.48854,13.066171 v 16.14503 h 3.13608 v -16.14503 h 5.34296 v -2.710197 h -5.34296 V 6.8327179 c 0,-2.4778943 1.00665,-3.4845388 2.55533,-3.4845388 1.04536,0 2.09072,0.387171 3.29095,1.0066445 l 0.69691,-2.6714797 c -1.04536,-0.6581907 -2.47789,-1.23894718 -4.37503,-1.23894718 -3.36839,0 -5.30424,2.05200618 -5.30424,6.07858438 v 3.8329929 h -2.28431 v 2.710197 z"
       id="path614" />
    <path
       d="m 227.86809,19.454492 c 0,-5.381677 -3.52326,-9.330821 -8.67263,-9.330821 -5.38168,0 -9.29211,3.987861 -9.29211,9.679275 0,5.768847 3.94915,9.640557 9.52441,9.640557 3.79427,0 6.15602,-1.432532 7.78214,-3.523256 l -2.20688,-1.85842 c -1.16151,1.432532 -2.9425,2.516611 -5.45911,2.516611 -3.56197,0 -6.03987,-2.323026 -6.46576,-5.846282 h 14.7125 c 0,-0.232302 0.0774,-0.774342 0.0774,-1.277664 z m -8.71135,-6.465755 c 3.09737,0 5.11066,2.090723 5.57526,5.188091 h -11.57641 c 0.58076,-3.213519 2.98122,-5.188091 6.00115,-5.188091 z"
       id="path616" />
  </g>
</svg>
